<svg xmlns="http://www.w3.org/2000/svg" width="115.564" height="21.436" viewBox="0 0 115.564 21.436">
  <g id="Group_47" data-name="Group 47" transform="translate(-439.32 -20.525)">
    <path id="Path_34" data-name="Path 34" d="M274.885,560.613a3.189,3.189,0,0,0-1.216-.927,3.723,3.723,0,0,0-1.568-.353,3.307,3.307,0,0,0-1.5.336,3.636,3.636,0,0,0-1.152.9,4.213,4.213,0,0,0-.752,1.3,4.49,4.49,0,0,0-.272,1.568,4.71,4.71,0,0,0,.256,1.567,3.787,3.787,0,0,0,.752,1.3,3.561,3.561,0,0,0,1.184.88,3.623,3.623,0,0,0,1.551.32,4.325,4.325,0,0,0,1.584-.3,3.023,3.023,0,0,0,1.264-.879l2.911,3.551a6.818,6.818,0,0,1-2.559,1.5,10.067,10.067,0,0,1-3.327.544,10.554,10.554,0,0,1-3.525-.575,8.2,8.2,0,0,1-2.843-1.68,7.882,7.882,0,0,1-1.9-2.672,9.374,9.374,0,0,1,0-7.07,7.874,7.874,0,0,1,1.9-2.672,8.385,8.385,0,0,1,2.843-1.7,10.2,10.2,0,0,1,3.493-.592,9.26,9.26,0,0,1,1.711.159,11.76,11.76,0,0,1,1.632.432,7.4,7.4,0,0,1,1.439.672,6.094,6.094,0,0,1,1.136.88Z" transform="translate(176.241 -529.947)" fill="#fafbfc"/>
    <path id="Path_35" data-name="Path 35" d="M282.331,557.639a9.185,9.185,0,0,1,3.279-2.016,11.252,11.252,0,0,1,3.824-.672,10.226,10.226,0,0,1,3.407.5,5.089,5.089,0,0,1,2.256,1.536,6.558,6.558,0,0,1,1.263,2.624,15.489,15.489,0,0,1,.4,3.759V571.4h-4.8v-1.7h-.1a3.95,3.95,0,0,1-1.84,1.535,6.542,6.542,0,0,1-2.671.544,8.176,8.176,0,0,1-1.984-.256,5.8,5.8,0,0,1-1.872-.833,4.5,4.5,0,0,1-1.392-1.535,4.743,4.743,0,0,1-.544-2.368,4.022,4.022,0,0,1,.943-2.784,6.206,6.206,0,0,1,2.432-1.631,12.837,12.837,0,0,1,3.311-.768,33.878,33.878,0,0,1,3.552-.192v-.256a1.954,1.954,0,0,0-.832-1.743,3.589,3.589,0,0,0-2.049-.56,5.108,5.108,0,0,0-2.16.479,6.914,6.914,0,0,0-1.775,1.152Zm9.631,6.815h-.673q-.863,0-1.743.08a7.243,7.243,0,0,0-1.568.3,2.909,2.909,0,0,0-1.135.656,1.5,1.5,0,0,0-.448,1.135,1.378,1.378,0,0,0,.207.769,1.621,1.621,0,0,0,.528.512,2.228,2.228,0,0,0,.736.272,4.185,4.185,0,0,0,.8.081,3.242,3.242,0,0,0,2.448-.881,3.292,3.292,0,0,0,.848-2.384Z" transform="translate(172.843 -529.947)" fill="#fafbfc"/>
    <path id="Path_36" data-name="Path 36" d="M312.959,560.166a5.894,5.894,0,0,0-1.5-1.024,4.164,4.164,0,0,0-1.824-.416,3.2,3.2,0,0,0-1.36.289,1.009,1.009,0,0,0-.624.991.988.988,0,0,0,.687.961,14.962,14.962,0,0,0,2.224.64,12,12,0,0,1,1.808.544,6.4,6.4,0,0,1,1.648.928,4.445,4.445,0,0,1,1.184,1.407,4.137,4.137,0,0,1,.447,1.983,4.777,4.777,0,0,1-2.191,4.224,6.815,6.815,0,0,1-2.192.929,10.566,10.566,0,0,1-2.431.287,12.031,12.031,0,0,1-3.824-.624,8.025,8.025,0,0,1-3.119-1.84l2.943-3.1a5.872,5.872,0,0,0,1.728,1.28,4.806,4.806,0,0,0,2.177.512,2.862,2.862,0,0,0,1.263-.3,1.09,1.09,0,0,0,.624-1.072,1.15,1.15,0,0,0-.768-1.088,13.774,13.774,0,0,0-2.4-.736,12.3,12.3,0,0,1-1.663-.512,5.249,5.249,0,0,1-1.488-.864,4.283,4.283,0,0,1-1.072-1.343,4.1,4.1,0,0,1-.416-1.919,4.65,4.65,0,0,1,.608-2.448,5.134,5.134,0,0,1,1.568-1.648,6.948,6.948,0,0,1,2.128-.944,9.184,9.184,0,0,1,2.319-.3,11.213,11.213,0,0,1,3.5.56,7.573,7.573,0,0,1,2.9,1.68Z" transform="translate(169.106 -529.947)" fill="#fafbfc"/>
    <path id="Path_37" data-name="Path 37" d="M321.023,557.639a9.18,9.18,0,0,1,3.278-2.016,11.256,11.256,0,0,1,3.824-.672,10.217,10.217,0,0,1,3.407.5,5.087,5.087,0,0,1,2.257,1.536,6.581,6.581,0,0,1,1.264,2.624,15.53,15.53,0,0,1,.4,3.759V571.4h-4.8v-1.7h-.1a3.954,3.954,0,0,1-1.84,1.535,6.545,6.545,0,0,1-2.672.544,8.181,8.181,0,0,1-1.984-.256,5.788,5.788,0,0,1-1.871-.833,4.493,4.493,0,0,1-1.392-1.535,4.735,4.735,0,0,1-.544-2.368,4.022,4.022,0,0,1,.944-2.784,6.2,6.2,0,0,1,2.431-1.631,12.836,12.836,0,0,1,3.311-.768,33.889,33.889,0,0,1,3.552-.192v-.256a1.956,1.956,0,0,0-.831-1.743,3.594,3.594,0,0,0-2.049-.56,5.116,5.116,0,0,0-2.16.479,6.928,6.928,0,0,0-1.775,1.152Zm9.631,6.815h-.672q-.865,0-1.745.08a7.243,7.243,0,0,0-1.568.3,2.9,2.9,0,0,0-1.134.656,1.5,1.5,0,0,0-.448,1.135,1.378,1.378,0,0,0,.207.769,1.619,1.619,0,0,0,.527.512,2.232,2.232,0,0,0,.737.272,4.183,4.183,0,0,0,.8.081,3.247,3.247,0,0,0,2.449-.881,3.3,3.3,0,0,0,.847-2.384Z" transform="translate(165.73 -529.947)" fill="#fafbfc"/>
    <path id="Path_38" data-name="Path 38" d="M351.167,570.755v-8.638a8.155,8.155,0,0,0-.1-1.281,3.051,3.051,0,0,0-.368-1.072,2.076,2.076,0,0,0-.72-.736,2.2,2.2,0,0,0-1.152-.273,2.487,2.487,0,0,0-2.111.977,3.9,3.9,0,0,0-.736,2.415v8.607h-5.247V551.463h5.247v5.374h.065a4.991,4.991,0,0,1,1.728-1.712,5.21,5.21,0,0,1,2.848-.752,5.862,5.862,0,0,1,2.735.576,5.229,5.229,0,0,1,1.791,1.488,5.871,5.871,0,0,1,.992,2.1,9.5,9.5,0,0,1,.3,2.368v9.854Z" transform="translate(161.964 -529.305)" fill="#fafbfc"/>
    <path id="Path_39" data-name="Path 39" d="M372.305,571.512V569.3h-.064a4.49,4.49,0,0,1-.752,1.024,4.772,4.772,0,0,1-1.089.832,6.652,6.652,0,0,1-1.376.576,5.533,5.533,0,0,1-1.583.224,5.8,5.8,0,0,1-2.7-.575,5.246,5.246,0,0,1-1.791-1.489,5.864,5.864,0,0,1-.992-2.079,9.4,9.4,0,0,1-.3-2.384v-9.855h5.279v8.639a8.245,8.245,0,0,0,.1,1.28,3.215,3.215,0,0,0,.368,1.087,2.028,2.028,0,0,0,.721.753,2.262,2.262,0,0,0,1.183.272,2.4,2.4,0,0,0,2.1-1.024,4.061,4.061,0,0,0,.72-2.4v-8.606h5.247v15.934Z" transform="translate(158.119 -530.062)" fill="#fafbfc"/>
    <path id="Path_40" data-name="Path 40" d="M400.689,562.357a10.051,10.051,0,0,1-.512,3.2,8.216,8.216,0,0,1-1.488,2.7,7.337,7.337,0,0,1-2.384,1.871,7.055,7.055,0,0,1-3.2.7,7.152,7.152,0,0,1-3.025-.656,4.97,4.97,0,0,1-2.191-1.871h-.064v2.08H383V549.463h5.247v6.686h.064a6.6,6.6,0,0,1,1.888-1.471,6.077,6.077,0,0,1,2.977-.673,7.015,7.015,0,0,1,5.486,2.5,8.275,8.275,0,0,1,1.5,2.672A9.616,9.616,0,0,1,400.689,562.357Zm-5.055,0a4.8,4.8,0,0,0-.24-1.5,3.671,3.671,0,0,0-1.9-2.208,3.61,3.61,0,0,0-1.632-.352,3.539,3.539,0,0,0-1.6.352,3.822,3.822,0,0,0-1.2.928,4.232,4.232,0,0,0-.768,1.311,4.3,4.3,0,0,0,0,3.008,4.218,4.218,0,0,0,.768,1.312,3.823,3.823,0,0,0,1.2.929,3.549,3.549,0,0,0,1.6.351,3.532,3.532,0,0,0,2.816-1.28,3.882,3.882,0,0,0,.72-1.328A4.942,4.942,0,0,0,395.634,562.357Z" transform="translate(154.194 -528.938)" fill="#fafbfc"/>
  </g>
</svg>
