<svg xmlns="http://www.w3.org/2000/svg" xmlns:xlink="http://www.w3.org/1999/xlink" width="1042.739" height="356.435" viewBox="0 0 1042.739 356.435"><defs><linearGradient id="a" x1="1.246" y1="1" x2="0.5" y2="-115.41" gradientUnits="objectBoundingBox"><stop offset="0" stop-color="#fe8d59"/><stop offset="1" stop-color="#f1565b"/></linearGradient></defs><g transform="translate(-370.455 -617.45)"><rect width="840.058" height="1.544" transform="translate(531.269 796.826)" fill="url(#a)"/><path d="M225.41,125.193l-1.05-1.143,5.575-5.174-5.575-5.189,1.05-1.127,6.8,6.316Z" transform="translate(1140.804 678.722)" fill="url(#a)"/><path d="M241.458,180.836a47.458,47.458,0,1,1,47.458-47.458A47.511,47.511,0,0,1,241.458,180.836Zm0-93.371a45.913,45.913,0,1,0,45.913,45.913A45.972,45.972,0,0,0,241.458,87.464Z" transform="translate(1124.278 664.221)" fill="url(#a)"/><rect width="840.058" height="1.544" transform="translate(531.269 925.655)" fill="url(#a)"/><path d="M225.41,208.613l-1.05-1.127,5.575-5.189-5.575-5.189,1.05-1.127,6.8,6.316Z" transform="translate(1140.804 724.131)" fill="url(#a)"/><path d="M241.458,264.256A47.458,47.458,0,1,1,288.915,216.8,47.511,47.511,0,0,1,241.458,264.256Zm0-93.371A45.913,45.913,0,1,0,287.371,216.8,45.972,45.972,0,0,0,241.458,170.884Z" transform="translate(1124.278 709.63)" fill="url(#a)"/><rect width="840.058" height="1.544" transform="translate(531.269 664.136)" fill="url(#a)"/><path d="M225.41,39.273l-1.05-1.127,5.575-5.189-5.575-5.189,1.05-1.127,6.8,6.316Z" transform="translate(1140.804 631.952)" fill="url(#a)"/><path d="M241.458,94.916a47.458,47.458,0,1,1,47.458-47.458A47.511,47.511,0,0,1,241.458,94.916Zm0-93.371a45.913,45.913,0,1,0,45.913,45.913A45.972,45.972,0,0,0,241.458,1.544Z" transform="translate(1124.278 617.45)" fill="url(#a)"/><path d="M47.458,180.836a47.458,47.458,0,1,1,47.458-47.458A47.521,47.521,0,0,1,47.458,180.836Zm0-93.371a45.913,45.913,0,1,0,45.913,45.913A45.962,45.962,0,0,0,47.458,87.464Z" transform="translate(370.455 664.221)" fill="url(#a)"/></g></svg>