<?xml version="1.0" encoding="utf-8"?>
<!-- Generator: Adobe Illustrator 24.0.1, SVG Export Plug-In . SVG Version: 6.00 Build 0)  -->
<svg version="1.1" id="Layer_1" xmlns="http://www.w3.org/2000/svg" xmlns:xlink="http://www.w3.org/1999/xlink" x="0px" y="0px"
	 viewBox="0 0 1145 455" style="enable-background:new 0 0 1145 455;" xml:space="preserve">
<style type="text/css">
	
		.st0{fill-rule:evenodd;clip-rule:evenodd;fill:url(#SVGID_1_);stroke:#4AADE2;stroke-width:4;stroke-linejoin:bevel;stroke-miterlimit:10;}
	.st1{fill-rule:evenodd;clip-rule:evenodd;fill:#FFFFFF;}
	.st2{fill:#F4F8FB;stroke:#3EB0EF;stroke-width:4;}
	.st3{fill:#343F44;}
	.st4{font-family:'OpenSans-Bold';}
	.st5{font-size:12px;}
	.st6{fill:#379ED7;}
	.st7{font-family:'OpenSans';}
</style>
<linearGradient id="SVGID_1_" gradientUnits="userSpaceOnUse" x1="534.0433" y1="0.5291" x2="534.0433" y2="1.6591" gradientTransform="matrix(1162 0 0 507.18 -619957 -386.6904)">
	<stop  offset="0" style="stop-color:#3A7494"/>
	<stop  offset="1" style="stop-color:#213742"/>
</linearGradient>
<path class="st0" d="M25.7,458.5c47.4-21.9,116.8-33,206.6-33c65,0,137.4-15.5,215.1-46c76.6-30.1,139.2-67.1,178.3-92.9
	c102.5-67.7,203-110.9,269.1-135.2c16.7-6.1,33.7-11.7,50.1-17.1c62.3-20.4,121.2-39.7,168.3-88.8c33.7-35.1,54.7-61.8,63.7-81.1
	v494.2"/>
<title>testArtboard 1test</title>
<image style="overflow:visible;opacity:0.1;enable-background:new    ;" width="140" height="106" xlink:href="F232739981FE2DDE.png"  transform="matrix(1 0 0 1 837.18 149.63)">
</image>
<path class="st1" d="M898,176l9.2-11l9.2,11h38.9c3.3,0,6,2.7,6,6v52c0,3.3-2.7,6-6,6h-97c-3.3,0-6-2.7-6-6v-52c0-3.3,2.7-6,6-6H898
	z"/>
<image style="overflow:visible;opacity:0.1;enable-background:new    ;" width="139" height="105" xlink:href="F232739981FE2DD1.png"  transform="matrix(1 0 0 1 -1 331)">
</image>
<path class="st1" d="M77.2,410L68,421l-9.2-11H20c-3.3,0-6-2.7-6-6v-52c0-3.3,2.7-6,6-6h97c3.3,0,6,2.7,6,6v52c0,3.3-2.7,6-6,6H77.2
	z"/>
<circle class="st2" cx="69" cy="441" r="6"/>
<circle class="st2" cx="337" cy="411" r="6"/>
<circle class="st2" cx="627" cy="284" r="6"/>
<circle class="st2" cx="907" cy="145" r="6"/>
<text transform="matrix(1 0 0 1 25.8 368.21)" class="st3 st4 st5">2019</text>
<text transform="matrix(1 0 0 1 25.8 368.21)" class="st6 st4 st5">2019</text>
<text transform="matrix(1 0 0 1 25.8 383.19)" class="st3 st7 st5">Ideia, beta</text>
<text transform="matrix(1 0 0 1 25.8 397.59)" class="st3 st7 st5">e MVP</text>
<text transform="matrix(1 0 0 1 860.46 196.85)" class="st6 st4 st5">2020</text>
<text transform="matrix(1 0 0 1 25.8 368.21)" class="st6 st4 st5">2019</text>
<text transform="matrix(1 0 0 1 25.8 383.19)" class="st3 st7 st5">Ideia, beta</text>
<text transform="matrix(1 0 0 1 25.8 397.59)" class="st3 st7 st5">e MVP</text>
<text transform="matrix(1 0 0 1 860.46 211.83)" class="st3 st7 st5">Lançamento</text>
<text transform="matrix(1 0 0 1 860.46 226.23)" class="st3 st7 st5">e </text>
<text transform="matrix(1 0 0 1 870.31 226.23)" class="st3 st4 st5">+20</text>
<text transform="matrix(1 0 0 1 893.86 226.23)" class="st3 st7 st5"> facilidades</text>
</svg>
