<?xml version="1.0" encoding="utf-8"?>
<!-- Generator: Adobe Illustrator 23.0.2, SVG Export Plug-In . SVG Version: 6.00 Build 0)  -->
<svg version="1.1" id="Layer_1" xmlns="http://www.w3.org/2000/svg" xmlns:xlink="http://www.w3.org/1999/xlink" x="0px" y="0px"
	 viewBox="0 0 2000 2000" style="enable-background:new 0 0 2000 2000;" xml:space="preserve">
<style type="text/css">
	.st0{fill:#EE2D5D;}
</style>
<title>s21-logo</title>
<path class="st0" d="M298.1,692.5c5.6,39.3,16.5,68.6,32.7,88c29.8,35.4,80.8,53.1,153,53.1c43.3,0,78.4-4.7,105.4-14
	c51.2-17.9,76.8-51.1,76.8-99.7c0-28.4-12.5-50.3-37.6-65.8c-25.1-15.2-64.9-28.6-119.4-40.2l-92.9-20.5
	c-91.4-20.2-154.3-42.1-188.5-65.8c-57.9-39.6-86.9-101.6-86.9-186c0-76.9,28.3-140.9,85-191.8s139.9-76.4,249.6-76.5
	c91.7,0,169.9,24,234.6,71.9s98.7,117.6,101.8,209H639.2c-3.2-51.7-26.3-88.4-69.3-110.2c-28.7-14.4-64.3-21.6-107-21.6
	c-47.4,0-85.3,9.3-113.6,28c-28.3,18.7-42.4,44.7-42.4,78.1c0,30.7,13.9,53.7,41.8,68.8c17.9,10.1,56,22,114.2,35.6l150.8,35.6
	c66.1,15.6,115.7,36.4,148.7,62.4c51.2,40.4,76.8,98.9,76.8,175.5c0,78.6-30.4,143.8-91.1,195.6c-60.7,51.8-146.4,77.8-257.2,77.8
	c-113.2,0-202.1-25.6-267-76.7c-64.8-51.1-97.2-121.3-97.2-210.6H298.1z"/>
<path class="st0" d="M174.8,1706.3c30.1-71.8,101.4-147.6,213.8-227.5c97.6-69.5,160.8-119.4,189.6-149.5
	c44.2-46.9,66.3-98.2,66.3-153.9c0-45.4-12.7-83.2-38-113.3c-25.3-30.1-61.6-45.2-108.7-45.2c-64.5,0-108.5,23.9-131.8,71.8
	c-13.4,27.6-21.4,71.6-23.8,131.8H137c3.5-91.5,20-165.4,49.7-221.8c56.4-107.4,156.6-161,300.7-161c113.9,0,204.4,31.5,271.7,94.5
	s101,146.4,101,250.1c0,79.6-23.8,150.3-71.3,212c-31.2,41-82.4,86.7-153.7,137l-84.7,59.9c-53,37.5-89.3,64.6-108.9,81.4
	c-19.6,16.7-36.3,36.4-49.5,58.5h469.7v186.9H124.9C126.8,1840.7,143.5,1770.1,174.8,1706.3z"/>
<path class="st0" d="M1027.5,1176.5v-144.3c66.6-3,113.3-7.4,139.9-13.4c42.4-9.4,77-28.2,103.7-56.4c18.2-19.3,32.1-45,41.5-77.1
	c5.4-19.3,8.1-33.6,8.1-43h176.2v1075.6h-215.7v-741.4H1027.5z"/>
</svg>
