<svg xmlns="http://www.w3.org/2000/svg" width="197.372" height="40.704" viewBox="0 0 197.372 40.704">
  <path id="Caminho_44" data-name="Caminho 44" d="M20.246-17.437a4.455,4.455,0,0,0-1.643-1.4,4.83,4.83,0,0,0-2.279-.556,6.077,6.077,0,0,0-4.69,1.8,6.664,6.664,0,0,0-1.67,4.717,6.664,6.664,0,0,0,1.67,4.717,6.077,6.077,0,0,0,4.69,1.8A4.287,4.287,0,0,0,18.6-6.943a6.95,6.95,0,0,0,1.643-1.378l5.247,5.512A10.137,10.137,0,0,1,21.121-.132a16.43,16.43,0,0,1-4.8.768,16.235,16.235,0,0,1-5.591-.954,13.458,13.458,0,0,1-4.558-2.73A12.81,12.81,0,0,1,3.127-7.314a13.494,13.494,0,0,1-1.113-5.565,13.494,13.494,0,0,1,1.113-5.565,12.81,12.81,0,0,1,3.047-4.267,13.458,13.458,0,0,1,4.558-2.729,16.235,16.235,0,0,1,5.591-.954,16.43,16.43,0,0,1,4.8.768,10.137,10.137,0,0,1,4.372,2.677ZM44.52-3.233h-.106A7.476,7.476,0,0,1,40.889-.265a12.115,12.115,0,0,1-4.638.9,11.957,11.957,0,0,1-3.472-.5,8.761,8.761,0,0,1-2.941-1.511,7.294,7.294,0,0,1-2.014-2.491,7.608,7.608,0,0,1-.742-3.445,7.9,7.9,0,0,1,.821-3.763,7.351,7.351,0,0,1,2.226-2.544,11.054,11.054,0,0,1,3.206-1.564,23.407,23.407,0,0,1,3.737-.821,35.689,35.689,0,0,1,3.869-.318q1.935-.053,3.578-.053a4.134,4.134,0,0,0-1.511-3.366,5.447,5.447,0,0,0-3.577-1.245,7.781,7.781,0,0,0-3.577.821,9.772,9.772,0,0,0-2.889,2.253l-4.24-4.346a14.589,14.589,0,0,1,5.194-3.1,18.563,18.563,0,0,1,6.148-1.033,16.073,16.073,0,0,1,5.75.874,8.362,8.362,0,0,1,3.6,2.571,9.9,9.9,0,0,1,1.882,4.16,27.3,27.3,0,0,1,.53,5.7V0H44.52Zm-1.961-8.056q-.9,0-2.252.079a11.414,11.414,0,0,0-2.6.451,5.779,5.779,0,0,0-2.12,1.113,2.564,2.564,0,0,0-.875,2.067,2.274,2.274,0,0,0,1.219,2.12,5.1,5.1,0,0,0,2.544.689,7.977,7.977,0,0,0,2.252-.318,6.718,6.718,0,0,0,1.935-.9,4.355,4.355,0,0,0,1.352-1.484,4.276,4.276,0,0,0,.5-2.12v-1.7Zm28.832-6.89a5.629,5.629,0,0,0-4.611-2.173,4.337,4.337,0,0,0-1.961.477,1.686,1.686,0,0,0-.954,1.643,1.478,1.478,0,0,0,.98,1.4,12.969,12.969,0,0,0,2.491.795q1.51.345,3.233.742A12.148,12.148,0,0,1,73.8-14.045a7.236,7.236,0,0,1,2.491,2.305,6.877,6.877,0,0,1,.98,3.9,7.214,7.214,0,0,1-1.087,4.107A8.333,8.333,0,0,1,73.4-1.14,11.967,11.967,0,0,1,69.589.238a22.683,22.683,0,0,1-4.187.4,20.254,20.254,0,0,1-5.459-.768,10.2,10.2,0,0,1-4.664-2.729L60.1-8.215a8,8,0,0,0,2.465,2.094,6.644,6.644,0,0,0,3.153.715,7.369,7.369,0,0,0,2.491-.4,1.466,1.466,0,0,0,1.113-1.457,1.615,1.615,0,0,0-.98-1.51,10.736,10.736,0,0,0-2.491-.848q-1.51-.345-3.233-.742a13.358,13.358,0,0,1-3.233-1.193A6.765,6.765,0,0,1,56.9-13.807a6.877,6.877,0,0,1-.98-3.9,7.854,7.854,0,0,1,.927-3.922,8.149,8.149,0,0,1,2.438-2.7,10.548,10.548,0,0,1,3.472-1.563,15.922,15.922,0,0,1,3.975-.5,18.647,18.647,0,0,1,5.141.742,9.535,9.535,0,0,1,4.4,2.65ZM97.52-3.233h-.106A7.476,7.476,0,0,1,93.889-.265a12.115,12.115,0,0,1-4.637.9,11.957,11.957,0,0,1-3.472-.5,8.761,8.761,0,0,1-2.941-1.511,7.294,7.294,0,0,1-2.014-2.491,7.608,7.608,0,0,1-.742-3.445,7.9,7.9,0,0,1,.821-3.763,7.351,7.351,0,0,1,2.226-2.544,11.054,11.054,0,0,1,3.206-1.564,23.407,23.407,0,0,1,3.737-.821,35.689,35.689,0,0,1,3.869-.318q1.934-.053,3.577-.053a4.134,4.134,0,0,0-1.51-3.366,5.447,5.447,0,0,0-3.577-1.245,7.781,7.781,0,0,0-3.577.821,9.772,9.772,0,0,0-2.889,2.253l-4.24-4.346a14.589,14.589,0,0,1,5.194-3.1,18.563,18.563,0,0,1,6.148-1.033,16.073,16.073,0,0,1,5.751.874,8.362,8.362,0,0,1,3.6,2.571,9.9,9.9,0,0,1,1.882,4.16,27.3,27.3,0,0,1,.53,5.7V0H97.52Zm-1.961-8.056q-.9,0-2.253.079a11.414,11.414,0,0,0-2.6.451,5.779,5.779,0,0,0-2.12,1.113,2.564,2.564,0,0,0-.875,2.067,2.274,2.274,0,0,0,1.219,2.12,5.1,5.1,0,0,0,2.544.689,7.977,7.977,0,0,0,2.253-.318,6.718,6.718,0,0,0,1.935-.9,4.355,4.355,0,0,0,1.351-1.484,4.276,4.276,0,0,0,.5-2.12v-1.7Zm22.207-28.779V-22.26h.106a4.777,4.777,0,0,1,.9-1.484,7.049,7.049,0,0,1,1.537-1.325,8.37,8.37,0,0,1,2.12-.954,9.064,9.064,0,0,1,2.65-.371,10.949,10.949,0,0,1,4.876.927,7.051,7.051,0,0,1,2.889,2.571,10.4,10.4,0,0,1,1.4,3.869,29.383,29.383,0,0,1,.371,4.823V0h-7.95V-12.614q0-1.113-.08-2.306a7.274,7.274,0,0,0-.477-2.2,3.8,3.8,0,0,0-1.219-1.643,3.787,3.787,0,0,0-2.358-.636,4.908,4.908,0,0,0-2.491.556,3.793,3.793,0,0,0-1.458,1.484,6.067,6.067,0,0,0-.662,2.094,18.042,18.042,0,0,0-.159,2.438V0h-7.95V-40.068ZM165.042,0H157.41V-3.5H157.3a8.8,8.8,0,0,1-1.087,1.484A7.13,7.13,0,0,1,154.6-.689a9.394,9.394,0,0,1-2.173.954,9.064,9.064,0,0,1-2.65.371,11.126,11.126,0,0,1-4.9-.927,7.016,7.016,0,0,1-2.915-2.57,10.076,10.076,0,0,1-1.378-3.869,31.6,31.6,0,0,1-.344-4.823v-14.2h7.95v12.614q0,1.113.079,2.306a7.273,7.273,0,0,0,.477,2.2A3.8,3.8,0,0,0,149.964-7a3.787,3.787,0,0,0,2.359.636,4.908,4.908,0,0,0,2.491-.557A3.793,3.793,0,0,0,156.271-8.4a6.066,6.066,0,0,0,.662-2.093,18.04,18.04,0,0,0,.159-2.438V-25.758h7.95Zm6.36-40.068h7.95V-23h.106a7.421,7.421,0,0,1,3.525-2.624,13.66,13.66,0,0,1,4.637-.768,10.453,10.453,0,0,1,4.929,1.139,11.392,11.392,0,0,1,3.684,3.047,14.221,14.221,0,0,1,2.332,4.373,16.233,16.233,0,0,1,.822,5.167,15.333,15.333,0,0,1-.9,5.353A12.289,12.289,0,0,1,195.914-3.1a11.582,11.582,0,0,1-4,2.756,13.276,13.276,0,0,1-5.194.98,8.874,8.874,0,0,1-2.6-.371,11.213,11.213,0,0,1-2.253-.954,9.423,9.423,0,0,1-1.8-1.3,8.784,8.784,0,0,1-1.246-1.4h-.106V0H171.4Zm7.314,27.189a6.664,6.664,0,0,0,1.669,4.717,6.077,6.077,0,0,0,4.69,1.8,6.077,6.077,0,0,0,4.691-1.8,6.664,6.664,0,0,0,1.67-4.717,6.664,6.664,0,0,0-1.67-4.717,6.077,6.077,0,0,0-4.691-1.8,6.077,6.077,0,0,0-4.69,1.8A6.664,6.664,0,0,0,178.716-12.879Z" transform="translate(-2.014 40.068)" fill="#f36f45"/>
</svg>
